<?xml version="1.0" encoding="UTF-8"?><svg xmlns="http://www.w3.org/2000/svg" xmlns:xlink="http://www.w3.org/1999/xlink" stroke-dasharray="none" shape-rendering="auto" font-family="'Dialog'" width="433" text-rendering="auto" fill-opacity="1" contentScriptType="text/ecmascript" color-interpolation="auto" color-rendering="auto" preserveAspectRatio="xMidYMid meet" font-size="12" viewBox="0 0 433 471" fill="black" stroke="black" image-rendering="auto" stroke-miterlimit="10" zoomAndPan="magnify" version="1.0" stroke-linecap="square" stroke-linejoin="miter" contentStyleType="text/css" font-style="normal" height="471" stroke-width="1" stroke-dashoffset="0" font-weight="normal" stroke-opacity="1">
<!--Generated by the Batik Graphics2D SVG Generator-->
<defs id="genericDefs"/>
<g>
<defs id="defs1">
<clipPath clipPathUnits="userSpaceOnUse" id="clipPath1">
<path d="M66 12 L88 12 L88 34 L66 34 L66 12 Z"/>
</clipPath>
<clipPath clipPathUnits="userSpaceOnUse" id="clipPath2">
<path d="M29 138 L125 138 L125 180 L29 180 L29 138 Z"/>
</clipPath>
<clipPath clipPathUnits="userSpaceOnUse" id="clipPath3">
<path d="M35 148 L119 148 L119 170 L35 170 L35 148 Z"/>
</clipPath>
<clipPath clipPathUnits="userSpaceOnUse" id="clipPath4">
<path d="M238 78 L343 78 L343 120 L238 120 L238 78 Z"/>
</clipPath>
<clipPath clipPathUnits="userSpaceOnUse" id="clipPath5">
<path d="M244 88 L337 88 L337 110 L244 110 L244 88 Z"/>
</clipPath>
<clipPath clipPathUnits="userSpaceOnUse" id="clipPath6">
<path d="M80 85 L101 85 L101 106 L80 106 L80 85 Z"/>
</clipPath>
<clipPath clipPathUnits="userSpaceOnUse" id="clipPath7">
<path d="M9 246 L172 246 L172 288 L9 288 L9 246 Z"/>
</clipPath>
<clipPath clipPathUnits="userSpaceOnUse" id="clipPath8">
<path d="M15 256 L166 256 L166 278 L15 278 L15 256 Z"/>
</clipPath>
<clipPath clipPathUnits="userSpaceOnUse" id="clipPath9">
<path d="M33 342 L125 342 L125 384 L33 384 L33 342 Z"/>
</clipPath>
<clipPath clipPathUnits="userSpaceOnUse" id="clipPath10">
<path d="M39 352 L119 352 L119 374 L39 374 L39 352 Z"/>
</clipPath>
<clipPath clipPathUnits="userSpaceOnUse" id="clipPath11">
<path d="M73 445 L90 445 L90 462 L73 462 L73 445 Z"/>
</clipPath>
<clipPath clipPathUnits="userSpaceOnUse" id="clipPath12">
<path d="M75 447 L88 447 L88 460 L75 460 L75 447 Z"/>
</clipPath>
<clipPath clipPathUnits="userSpaceOnUse" id="clipPath13">
<path d="M78 450 L85 450 L85 457 L78 457 L78 450 Z"/>
</clipPath>
<clipPath clipPathUnits="userSpaceOnUse" id="clipPath14">
<path d="M407 93 L424 93 L424 110 L407 110 L407 93 Z"/>
</clipPath>
<clipPath clipPathUnits="userSpaceOnUse" id="clipPath15">
<path d="M409 95 L422 95 L422 108 L409 108 L409 95 Z"/>
</clipPath>
<clipPath clipPathUnits="userSpaceOnUse" id="clipPath16">
<path d="M412 98 L419 98 L419 105 L412 105 L412 98 Z"/>
</clipPath>
<clipPath clipPathUnits="userSpaceOnUse" id="clipPath17">
<path d="M-1 -1 L434 -1 L434 472 L-1 472 L-1 -1 Z"/>
</clipPath>
<clipPath clipPathUnits="userSpaceOnUse" id="clipPath18">
<path d="M85 78 L94 78 L94 88 L85 88 L85 78 Z"/>
</clipPath>
<clipPath clipPathUnits="userSpaceOnUse" id="clipPath19">
<path d="M-1 -1 L434 -1 L434 472 L-1 472 L-1 -1 Z"/>
</clipPath>
<clipPath clipPathUnits="userSpaceOnUse" id="clipPath20">
<path d="M80 130 L89 130 L89 141 L80 141 L80 130 Z"/>
</clipPath>
<clipPath clipPathUnits="userSpaceOnUse" id="clipPath21">
<path d="M-1 -1 L434 -1 L434 472 L-1 472 L-1 -1 Z"/>
</clipPath>
<clipPath clipPathUnits="userSpaceOnUse" id="clipPath22">
<path d="M231 91 L241 91 L241 100 L231 100 L231 91 Z"/>
</clipPath>
<clipPath clipPathUnits="userSpaceOnUse" id="clipPath23">
<path d="M-1 -1 L434 -1 L434 472 L-1 472 L-1 -1 Z"/>
</clipPath>
<clipPath clipPathUnits="userSpaceOnUse" id="clipPath24">
<path d="M400 97 L410 97 L410 106 L400 106 L400 97 Z"/>
</clipPath>
<clipPath clipPathUnits="userSpaceOnUse" id="clipPath25">
<path d="M-1 -1 L434 -1 L434 472 L-1 472 L-1 -1 Z"/>
</clipPath>
<clipPath clipPathUnits="userSpaceOnUse" id="clipPath26">
<path d="M88 239 L97 239 L97 249 L88 249 L88 239 Z"/>
</clipPath>
<clipPath clipPathUnits="userSpaceOnUse" id="clipPath27">
<path d="M-1 -1 L434 -1 L434 472 L-1 472 L-1 -1 Z"/>
</clipPath>
<clipPath clipPathUnits="userSpaceOnUse" id="clipPath28">
<path d="M84 335 L93 335 L93 345 L84 345 L84 335 Z"/>
</clipPath>
<clipPath clipPathUnits="userSpaceOnUse" id="clipPath29">
<path d="M-1 -1 L434 -1 L434 472 L-1 472 L-1 -1 Z"/>
</clipPath>
<clipPath clipPathUnits="userSpaceOnUse" id="clipPath30">
<path d="M77 438 L86 438 L86 448 L77 448 L77 438 Z"/>
</clipPath>
</defs>
<g font-size="15" fill="white" font-family="'Segoe UI'" stroke-linejoin="round" stroke="white" stroke-width="0" stroke-miterlimit="0">
<circle clip-path="url(#clipPath1)" fill="black" r="6.5" cx="76.5" cy="24.5" stroke="none"/>
<rect x="68" y="13" clip-path="url(#clipPath1)" fill="black" width="18" height="3" stroke="none"/>
</g>
<g font-size="15" fill="white" font-family="'Segoe UI'" stroke-linejoin="round" stroke="white" stroke-width="0" stroke-miterlimit="0">
<rect x="30" y="139" clip-path="url(#clipPath2)" uuid="_Ack18Xy1Eeq7gpUy_nxjBw" width="94" rx="4" ry="4" height="40" stroke="none" stroke-width="1.1"/>
</g>
<g stroke-linecap="butt" font-size="15" fill="rgb(176,176,176)" font-family="'Segoe UI'" stroke="rgb(176,176,176)" stroke-width="1.1">
<rect x="30" y="139" clip-path="url(#clipPath2)" fill="none" width="93" rx="4" ry="4" height="39"/>
<text x="36" y="166" clip-path="url(#clipPath3)" fill="black" stroke="none" xml:space="preserve">active agent</text>
</g>
<g stroke-linecap="butt" font-size="15" fill="white" font-family="'Segoe UI'" stroke="white" stroke-width="1.1">
<rect x="239" y="79" clip-path="url(#clipPath4)" uuid="_E2JeQXy1Eeq7gpUy_nxjBw" width="103" rx="4" ry="4" height="40" stroke="none"/>
<rect x="239" y="79" clip-path="url(#clipPath4)" fill="none" width="102" rx="4" ry="4" height="39" stroke="rgb(176,176,176)"/>
<text x="245" y="106" clip-path="url(#clipPath5)" fill="black" stroke="none" xml:space="preserve">passive agent</text>
</g>
<g stroke-linecap="butt" font-size="15" fill="white" font-family="'Segoe UI'" stroke="white" stroke-width="1.1">
<polygon uuid="_I8H1IHy1Eeq7gpUy_nxjBw" clip-path="url(#clipPath6)" points=" 90 86 100 95 90 105 81 95" stroke="none"/>
<polygon fill="none" stroke-width="2.1" clip-path="url(#clipPath6)" points=" 90 87 98 95 90 103 82 95" stroke="black"/>
</g>
<g stroke-linecap="butt" font-size="15" fill="white" font-family="'Segoe UI'" stroke="white" stroke-width="2.1">
<rect x="10" y="247" clip-path="url(#clipPath7)" uuid="_Jfx70Xy1Eeq7gpUy_nxjBw" width="161" rx="4" ry="4" height="40" stroke="none"/>
<rect x="10" y="247" clip-path="url(#clipPath7)" fill="none" width="160" rx="4" ry="4" height="39" stroke="rgb(176,176,176)" stroke-width="1.1"/>
<text x="16" y="274" clip-path="url(#clipPath8)" fill="black" stroke="none" stroke-width="1.1" xml:space="preserve">task should been done</text>
</g>
<g stroke-linecap="butt" font-size="15" fill="white" font-family="'Segoe UI'" stroke="white" stroke-width="1.1">
<rect x="34" y="343" clip-path="url(#clipPath9)" uuid="_MzUwMXy1Eeq7gpUy_nxjBw" width="90" rx="4" ry="4" height="40" stroke="none"/>
<rect x="34" y="343" clip-path="url(#clipPath9)" fill="none" width="89" rx="4" ry="4" height="39" stroke="rgb(176,176,176)"/>
<text x="40" y="370" clip-path="url(#clipPath10)" fill="black" stroke="none" xml:space="preserve">task is done</text>
</g>
<g stroke-linecap="butt" font-size="15" fill="white" font-family="'Segoe UI'" stroke="white" stroke-width="1.1">
<circle clip-path="url(#clipPath11)" fill="black" uuid="_Ok1KEXy1Eeq7gpUy_nxjBw" r="6.5" cx="80.5" cy="452.5" stroke="none"/>
<circle r="4.5" clip-path="url(#clipPath12)" cx="80.5" cy="452.5" stroke="none"/>
<circle clip-path="url(#clipPath13)" fill="black" r="1.5" cx="80.5" cy="452.5" stroke="none"/>
</g>
<g stroke-linecap="butt" font-size="15" fill="white" font-family="'Segoe UI'" stroke="white" stroke-width="1.1">
<circle clip-path="url(#clipPath14)" fill="black" uuid="_WFSq0Xy1Eeq7gpUy_nxjBw" r="6.5" cx="414.5" cy="100.5" stroke="none"/>
<circle r="4.5" clip-path="url(#clipPath15)" cx="414.5" cy="100.5" stroke="none"/>
<circle clip-path="url(#clipPath16)" fill="black" r="1.5" cx="414.5" cy="100.5" stroke="none"/>
</g>
<g font-size="15" font-family="'Segoe UI'" stroke-linecap="butt">
<line clip-path="url(#clipPath17)" fill="none" uuid="_PVjcYXy1Eeq7gpUy_nxjBw" x1="77" x2="90" y1="23" y2="86"/>
<polygon uuid="_PVjcYXy1Eeq7gpUy_nxjBw" clip-path="url(#clipPath18)" points=" 90 86 86 80 92 79" stroke="none"/>
<polygon uuid="_PVjcYXy1Eeq7gpUy_nxjBw" fill="none" clip-path="url(#clipPath18)" points=" 90 86 86 80 92 79"/>
</g>
<g font-size="15" font-family="'Segoe UI'" stroke-linecap="butt">
<line clip-path="url(#clipPath19)" fill="none" uuid="_P_kpwXy1Eeq7gpUy_nxjBw" x1="90" x2="82" y1="105" y2="139"/>
<polygon uuid="_P_kpwXy1Eeq7gpUy_nxjBw" clip-path="url(#clipPath20)" points=" 82 139 81 131 87 133" stroke="none"/>
<polygon uuid="_P_kpwXy1Eeq7gpUy_nxjBw" fill="none" clip-path="url(#clipPath20)" points=" 82 139 81 131 87 133"/>
</g>
<g font-size="15" font-family="'Segoe UI'" stroke-linecap="butt">
<line clip-path="url(#clipPath21)" fill="none" uuid="_U0WnYXy1Eeq7gpUy_nxjBw" x1="100" x2="239" y1="95" y2="95"/>
<polygon uuid="_U0WnYXy1Eeq7gpUy_nxjBw" clip-path="url(#clipPath22)" points=" 239 95 232 98 232 92" stroke="none"/>
<polygon uuid="_U0WnYXy1Eeq7gpUy_nxjBw" fill="none" clip-path="url(#clipPath22)" points=" 239 95 232 98 232 92"/>
</g>
<g font-size="15" font-family="'Segoe UI'" stroke-linecap="butt">
<line clip-path="url(#clipPath23)" fill="none" uuid="_W1LPoXy1Eeq7gpUy_nxjBw" x1="342" x2="408" y1="101" y2="101"/>
<polygon uuid="_W1LPoXy1Eeq7gpUy_nxjBw" clip-path="url(#clipPath24)" points=" 408 101 401 104 401 98" stroke="none"/>
<polygon uuid="_W1LPoXy1Eeq7gpUy_nxjBw" fill="none" clip-path="url(#clipPath24)" points=" 408 101 401 104 401 98"/>
</g>
<g font-size="15" font-family="'Segoe UI'" stroke-linecap="butt">
<line clip-path="url(#clipPath25)" fill="none" uuid="_YD66sXy1Eeq7gpUy_nxjBw" x1="92" x2="92" y1="179" y2="247"/>
<polygon uuid="_YD66sXy1Eeq7gpUy_nxjBw" clip-path="url(#clipPath26)" points=" 92 247 89 240 95 240" stroke="none"/>
<polygon uuid="_YD66sXy1Eeq7gpUy_nxjBw" fill="none" clip-path="url(#clipPath26)" points=" 92 247 89 240 95 240"/>
</g>
<g font-size="15" font-family="'Segoe UI'" stroke-linecap="butt">
<line clip-path="url(#clipPath27)" fill="none" uuid="_YiKV4Xy1Eeq7gpUy_nxjBw" x1="88" x2="88" y1="287" y2="343"/>
<polygon uuid="_YiKV4Xy1Eeq7gpUy_nxjBw" clip-path="url(#clipPath28)" points=" 88 343 85 336 91 336" stroke="none"/>
<polygon uuid="_YiKV4Xy1Eeq7gpUy_nxjBw" fill="none" clip-path="url(#clipPath28)" points=" 88 343 85 336 91 336"/>
</g>
<g font-size="15" font-family="'Segoe UI'" stroke-linecap="butt">
<line clip-path="url(#clipPath29)" fill="none" uuid="_ZJNHwXy1Eeq7gpUy_nxjBw" x1="81" x2="81" y1="383" y2="446"/>
<polygon uuid="_ZJNHwXy1Eeq7gpUy_nxjBw" clip-path="url(#clipPath30)" points=" 81 446 78 439 84 439" stroke="none"/>
<polygon uuid="_ZJNHwXy1Eeq7gpUy_nxjBw" fill="none" clip-path="url(#clipPath30)" points=" 81 446 78 439 84 439"/>
</g>
</g>
</svg>
