<?xml version="1.0" encoding="UTF-8"?><svg xmlns="http://www.w3.org/2000/svg" xmlns:xlink="http://www.w3.org/1999/xlink" stroke-dasharray="none" shape-rendering="auto" font-family="'Dialog'" width="119" text-rendering="auto" fill-opacity="1" contentScriptType="text/ecmascript" color-interpolation="auto" color-rendering="auto" preserveAspectRatio="xMidYMid meet" font-size="12" viewBox="0 0 119 325" fill="black" stroke="black" image-rendering="auto" stroke-miterlimit="10" zoomAndPan="magnify" version="1.0" stroke-linecap="square" stroke-linejoin="miter" contentStyleType="text/css" font-style="normal" height="325" stroke-width="1" stroke-dashoffset="0" font-weight="normal" stroke-opacity="1">
<!--Generated by the Batik Graphics2D SVG Generator-->
<defs id="genericDefs"/>
<g>
<defs id="defs1">
<clipPath clipPathUnits="userSpaceOnUse" id="clipPath1">
<path d="M49 12 L71 12 L71 34 L49 34 L49 12 Z"/>
</clipPath>
<clipPath clipPathUnits="userSpaceOnUse" id="clipPath2">
<path d="M9 107 L81 107 L81 149 L9 149 L9 107 Z"/>
</clipPath>
<clipPath clipPathUnits="userSpaceOnUse" id="clipPath3">
<path d="M15 117 L75 117 L75 139 L15 139 L15 117 Z"/>
</clipPath>
<clipPath clipPathUnits="userSpaceOnUse" id="clipPath4">
<path d="M68 299 L85 299 L85 316 L68 316 L68 299 Z"/>
</clipPath>
<clipPath clipPathUnits="userSpaceOnUse" id="clipPath5">
<path d="M70 301 L83 301 L83 314 L70 314 L70 301 Z"/>
</clipPath>
<clipPath clipPathUnits="userSpaceOnUse" id="clipPath6">
<path d="M73 304 L80 304 L80 311 L73 311 L73 304 Z"/>
</clipPath>
<clipPath clipPathUnits="userSpaceOnUse" id="clipPath7">
<path d="M33 203 L110 203 L110 245 L33 245 L33 203 Z"/>
</clipPath>
<clipPath clipPathUnits="userSpaceOnUse" id="clipPath8">
<path d="M39 213 L104 213 L104 235 L39 235 L39 213 Z"/>
</clipPath>
<clipPath clipPathUnits="userSpaceOnUse" id="clipPath9">
<path d="M-1 -1 L120 -1 L120 326 L-1 326 L-1 -1 Z"/>
</clipPath>
<clipPath clipPathUnits="userSpaceOnUse" id="clipPath10">
<path d="M44 100 L53 100 L53 110 L44 110 L44 100 Z"/>
</clipPath>
<clipPath clipPathUnits="userSpaceOnUse" id="clipPath11">
<path d="M-1 -1 L120 -1 L120 326 L-1 326 L-1 -1 Z"/>
</clipPath>
<clipPath clipPathUnits="userSpaceOnUse" id="clipPath12">
<path d="M72 292 L81 292 L81 302 L72 302 L72 292 Z"/>
</clipPath>
<clipPath clipPathUnits="userSpaceOnUse" id="clipPath13">
<path d="M-1 -1 L120 -1 L120 326 L-1 326 L-1 -1 Z"/>
</clipPath>
<clipPath clipPathUnits="userSpaceOnUse" id="clipPath14">
<path d="M71 195 L80 195 L80 206 L71 206 L71 195 Z"/>
</clipPath>
</defs>
<g font-size="15" fill="white" font-family="'Segoe UI'" stroke-linejoin="round" stroke="white" stroke-width="0" stroke-miterlimit="0">
<circle clip-path="url(#clipPath1)" fill="black" r="6.5" cx="59.5" cy="24.5" stroke="none"/>
<rect x="51" y="13" clip-path="url(#clipPath1)" fill="black" width="18" height="3" stroke="none"/>
</g>
<g font-size="15" fill="white" font-family="'Segoe UI'" stroke-linejoin="round" stroke="white" stroke-width="0" stroke-miterlimit="0">
<rect x="10" y="108" clip-path="url(#clipPath2)" uuid="_6S9BwHyzEeq7gpUy_nxjBw" width="70" rx="4" ry="4" height="40" stroke="none" stroke-width="1.1"/>
</g>
<g stroke-linecap="butt" font-size="15" fill="rgb(176,176,176)" font-family="'Segoe UI'" stroke="rgb(176,176,176)" stroke-width="1.1">
<rect x="10" y="108" clip-path="url(#clipPath2)" fill="none" width="69" rx="4" ry="4" height="39"/>
<text x="16" y="135" clip-path="url(#clipPath3)" fill="black" stroke="none" xml:space="preserve">old state</text>
</g>
<g stroke-linecap="butt" font-size="15" fill="white" font-family="'Segoe UI'" stroke="white" stroke-width="1.1">
<circle clip-path="url(#clipPath4)" fill="black" uuid="_9DsrEXyzEeq7gpUy_nxjBw" r="6.5" cx="75.5" cy="306.5" stroke="none"/>
<circle r="4.5" clip-path="url(#clipPath5)" cx="75.5" cy="306.5" stroke="none"/>
<circle clip-path="url(#clipPath6)" fill="black" r="1.5" cx="75.5" cy="306.5" stroke="none"/>
</g>
<g stroke-linecap="butt" font-size="15" fill="white" font-family="'Segoe UI'" stroke="white" stroke-width="1.1">
<rect x="34" y="204" clip-path="url(#clipPath7)" uuid="_flaysHy0Eeq7gpUy_nxjBw" width="75" rx="4" ry="4" height="40" stroke="none"/>
<rect x="34" y="204" clip-path="url(#clipPath7)" fill="none" width="74" rx="4" ry="4" height="39" stroke="rgb(176,176,176)"/>
<text x="40" y="231" clip-path="url(#clipPath8)" fill="black" stroke="none" xml:space="preserve">new state</text>
</g>
<g font-size="15" font-family="'Segoe UI'" stroke-linecap="butt">
<line clip-path="url(#clipPath9)" fill="none" uuid="_8m2-EXyzEeq7gpUy_nxjBw" x1="60" x2="47" y1="23" y2="108"/>
<polygon uuid="_8m2-EXyzEeq7gpUy_nxjBw" clip-path="url(#clipPath10)" points=" 47 108 45 101 51 102" stroke="none"/>
<polygon uuid="_8m2-EXyzEeq7gpUy_nxjBw" fill="none" clip-path="url(#clipPath10)" points=" 47 108 45 101 51 102"/>
</g>
<g font-size="15" font-family="'Segoe UI'" stroke-linecap="butt">
<line clip-path="url(#clipPath11)" fill="none" uuid="_97E_AXyzEeq7gpUy_nxjBw" x1="76" x2="76" y1="244" y2="300"/>
<polygon uuid="_97E_AXyzEeq7gpUy_nxjBw" clip-path="url(#clipPath12)" points=" 76 300 73 293 79 293" stroke="none"/>
<polygon uuid="_97E_AXyzEeq7gpUy_nxjBw" fill="none" clip-path="url(#clipPath12)" points=" 76 300 73 293 79 293"/>
</g>
<g font-size="15" font-family="'Segoe UI'" stroke-linecap="butt">
<line clip-path="url(#clipPath13)" fill="none" uuid="_gLSf4Xy0Eeq7gpUy_nxjBw" x1="58" x2="77" y1="148" y2="204"/>
<polygon uuid="_gLSf4Xy0Eeq7gpUy_nxjBw" clip-path="url(#clipPath14)" points=" 77 204 72 198 78 196" stroke="none"/>
<polygon uuid="_gLSf4Xy0Eeq7gpUy_nxjBw" fill="none" clip-path="url(#clipPath14)" points=" 77 204 72 198 78 196"/>
</g>
</g>
</svg>
